<svg xmlns="http://www.w3.org/2000/svg" version="1.1" xmlns:xlink="http://www.w3.org/1999/xlink" xmlns:svgjs="http://svgjs.com/svgjs" width="841.9" height="595.3"><svg version="1.0" id="SvgjsSvg1000" xmlns="http://www.w3.org/2000/svg" xmlns:xlink="http://www.w3.org/1999/xlink" x="0px" y="0px" viewBox="0 0 841.9 595.3" style="enable-background:new 0 0 841.9 595.3;" xml:space="preserve">
<style type="text/css">
	.st0{fill:#FF920B;}
</style>
<g>
	<path class="st0" d="M542.9,227.7c7.4,0,13.5,6.1,13.5,13.5v48.2c0,35.7-13.8,69.4-38.9,94.9c-25.1,25.5-58.5,39.8-94.1,40.5
		c-0.8,0-1.6,0-2.4,0c-35.4,0-68.7-13.7-94.2-38.7c-26.5-26.1-41.2-60.9-41.2-98.2v-46.7c0-7.4,6.1-13.5,13.5-13.5h46.5V176
		c0-20.2,7.9-39.3,22.4-53.5c14.4-14.3,33.5-22,53.8-21.8c41.2,0.4,74.6,34.6,74.6,76.3v112.5c0,20.2-7.9,39.3-22.4,53.5
		c-14.2,14.1-33,21.8-53,21.8c-0.3,0-0.5,0-0.7,0c-41.2-0.4-74.6-34.6-74.6-76.3v-16.8h-16v17.7c0,49.5,40.3,90.5,89.7,91.4
		c24.4,0.4,47.5-8.8,65.1-26.1c18-17.7,27.9-41.3,27.9-66.6v-60.3l5.1-0.1H542.9z M546.4,289.4v-48.2c0-1.9-1.6-3.5-3.5-3.5h-20.5
		V288c0,28-11,54.1-30.9,73.7c-19.5,19.2-45.2,29.5-72.3,29c-26.7-0.5-51.7-11.2-70.4-30.3c-18.8-19.1-29.1-44.3-29.1-71.1v-27.7h36
		v26.8c0,36.2,29,65.9,64.7,66.3c17.6,0.2,34.1-6.6,46.6-18.9c12.5-12.4,19.4-28.9,19.4-46.4V176.9c0-36.2-29-65.9-64.7-66.3
		c-17.6-0.2-34.1,6.6-46.6,18.9c-12.5,12.4-19.4,28.9-19.4,46.4v61.7h-56.5c-1.9,0-3.5,1.6-3.5,3.5v46.7c0,34.5,13.6,66.9,38.2,91
		c24.1,23.7,55.9,36.4,89.5,35.9C491.1,413.5,546.4,357.3,546.4,289.4z"></path>
	<path class="st0" d="M421,330.8c-10.9,0-21.1-4.2-28.9-11.8c-8.1-7.9-12.5-18.4-12.5-29.6V176c0-11.2,4.4-21.7,12.5-29.6
		c8-7.9,18.7-12,29.9-11.8c22.3,0.5,40.4,19.4,40.4,42.1v112c0,22.7-18.1,41.5-40.4,42.1C421.6,330.8,421.3,330.8,421,330.8z
		 M389.6,176v113.4c0,8.5,3.4,16.5,9.5,22.4c6.1,6,14.1,9.2,22.7,8.9c16.9-0.4,30.6-14.8,30.6-32.1v-112c0-17.3-13.7-31.7-30.6-32.1
		c-0.3,0-0.5,0-0.8,0c-8.2,0-16,3.2-21.9,8.9C393,159.5,389.6,167.5,389.6,176z"></path>
	<path class="st0" d="M299.5,202.8c-7.4,0-13.5-6.1-13.5-13.5l0-17c0-3.6,1.4-7,4-9.6c2.6-2.6,5.9-4,9.6-4h17
		c7.4,0,13.5,6.1,13.5,13.5v17c0,7.4-6.1,13.5-13.5,13.5H299.5z M297,169.8c-0.7,0.7-1,1.5-1,2.5l0,17c0,1.9,1.6,3.5,3.5,3.5h17
		c1.9,0,3.5-1.6,3.5-3.5v-17c0-1.9-1.6-3.5-3.5-3.5h-17C298.5,168.8,297.7,169.1,297,169.8z"></path>
	<path class="st0" d="M446,451.3c7.4,0,13.5,6.1,13.5,13.5v17c0,7.4-6.1,13.5-13.5,13.5h-50c-7.4,0-13.5-6.1-13.5-13.5l0-17
		c0-3.6,1.4-7,4-9.6c2.6-2.6,5.9-4,9.6-4h3v-4.2c0-6.3,5.9-11.2,13.5-11.2l17,0c0,0,0,0,0,0c3.3,0,6.5,1,9,2.8
		c2.9,2.1,4.5,5.2,4.5,8.4v4.2H446z M449.5,481.8v-17c0-1.9-1.6-3.5-3.5-3.5h-13v-14.1c-0.2-0.4-1.5-1.3-3.5-1.3c0,0,0,0,0,0l-17,0
		c-2,0-3.3,0.9-3.5,1.3v14.1h-13c-0.9,0-1.8,0.4-2.5,1c-0.7,0.7-1,1.5-1,2.5l0,17c0,1.9,1.6,3.5,3.5,3.5h50
		C447.9,485.3,449.5,483.7,449.5,481.8z"></path>
</g>
</svg><style>@media (prefers-color-scheme: light) { :root { filter: none; } }
</style></svg>